# xmcd
#
# Track frame offsets:
# 165
# 21119
# 32534
# 42914
# 68835
# 85260
# 100935
# 125273
# 161625
# 202628
#
# Disc length: 3433 seconds
#
# Revision: 0
# Processed by: cddbd v1.4PL0 Copyright (c) Steve Scherf et al.
# Submitted via: Audion 3.0.2 (http://www.panic.com/audion/)
#
DISCID=730d670a
DTITLE=Steven Jordheim, Saxophone and Christina Dahl, piano - The Music of David Maslanka
DYEAR=1900
DGENRE=
TTITLE0=Songbook for Alto Saxophone and Marimba - Song for Davy ("The Old Year is Past)
TTITLE1=2. Lost
TTITLE2=3. Hymn Tune with for Variations
TTITLE3=4. Serious Music-In Memorium Arthur Cohn
TTITLE4=Summer Song
TTITLE5=Song for Allison
TTITLE6=Evening Song
TTITLE7=Sonata for Alto Saxophone- I. Moderato
TTITLE8=II. Slow 
TTITLE9=III. Very Fast
EXTD=
EXTT0=
EXTT1=
EXTT2=
EXTT3=
EXTT4=
EXTT5=
EXTT6=
EXTT7=
EXTT8=
EXTT9=
PLAYORDER=
